<?xml version="1.0" encoding="UTF-8" standalone="no"?>
<svg
   width="800px"
   height="800px"
   viewBox="0 0 24 24"
   id="send-alt"
   class="icon glyph"
   version="1.1"
   sodipodi:docname="send.svg"
   inkscape:version="1.2.2 (b0a84865, 2022-12-01)"
   xmlns:inkscape="http://www.inkscape.org/namespaces/inkscape"
   xmlns:sodipodi="http://sodipodi.sourceforge.net/DTD/sodipodi-0.dtd"
   xmlns="http://www.w3.org/2000/svg"
   xmlns:svg="http://www.w3.org/2000/svg">
  <defs
     id="defs7" />
  <sodipodi:namedview
     id="namedview5"
     pagecolor="#ffffff"
     bordercolor="#000000"
     borderopacity="0.25"
     inkscape:showpageshadow="2"
     inkscape:pageopacity="0.0"
     inkscape:pagecheckerboard="0"
     inkscape:deskcolor="#d1d1d1"
     showgrid="false"
     inkscape:zoom="0.295"
     inkscape:cx="-138.98305"
     inkscape:cy="400"
     inkscape:window-width="1309"
     inkscape:window-height="456"
     inkscape:window-x="0"
     inkscape:window-y="38"
     inkscape:window-maximized="0"
     inkscape:current-layer="send-alt" />
  <path
     d="M21.88,4.73,16.2,20.65A2,2,0,0,1,14.3,22h0a2,2,0,0,1-1.9-1.31l-2.12-5.52,1.54-1.54,2.49-2.49a1,1,0,1,0-1.42-1.42l-2.49,2.49L8.82,13.76,3.31,11.63a2,2,0,0,1,0-3.83L19.27,2.12a2,2,0,0,1,2.61,2.61Z"
     style="fill:#27bdf5"
     id="path2" />
  <path
     d="M21.88,4.73,16.2,20.65A2,2,0,0,1,14.3,22h0a2,2,0,0,1-1.9-1.31l-2.12-5.52,1.54-1.54,2.49-2.49a1,1,0,1,0-1.42-1.42l-2.49,2.49L8.82,13.76,3.31,11.63a2,2,0,0,1,0-3.83L19.27,2.12a2,2,0,0,1,2.61,2.61Z"
     style="fill:#27bdf5"
     id="path167" />
  <path
     d="M21.88,4.73,16.2,20.65A2,2,0,0,1,14.3,22h0a2,2,0,0,1-1.9-1.31l-2.12-5.52,1.54-1.54,2.49-2.49a1,1,0,1,0-1.42-1.42l-2.49,2.49L8.82,13.76,3.31,11.63a2,2,0,0,1,0-3.83L19.27,2.12a2,2,0,0,1,2.61,2.61Z"
     style="fill:#27bdf5"
     id="path169" />
  <path
     d="M21.88,4.73,16.2,20.65A2,2,0,0,1,14.3,22h0a2,2,0,0,1-1.9-1.31l-2.12-5.52,1.54-1.54,2.49-2.49a1,1,0,1,0-1.42-1.42l-2.49,2.49L8.82,13.76,3.31,11.63a2,2,0,0,1,0-3.83L19.27,2.12a2,2,0,0,1,2.61,2.61Z"
     style="fill:#27bdf5;fill-opacity:0.80000001"
     id="path171" />
</svg>
